<svg xmlns="http://www.w3.org/2000/svg" viewBox="0 0 400.003 113.713"><g fill="#bd0000"><path d="M62.858 156.904v-2.629l-1.717.25q-2.682.412-4.024.877-1.323.447-2.057 1.18-.84.84-.84 1.86 0 1.377 1.001 2.361 1.002.984 2.397.984 2.003 0 3.613-1.503 1.627-1.52 1.627-3.38zm.036 7.333v-2.63q-.858.77-1.377 1.181-.5.394-1.36.912-.84.52-1.788.752-.948.232-2.074.232-2.773 0-4.579-1.663-1.788-1.681-1.788-4.239 0-2.235 1.466-3.81 1.127-1.162 3.058-1.77 1.932-.608 5.849-1.055l2.557-.286v-1.252q0-1.7-1.073-2.593-1.055-.913-3.076-.913-1.842 0-2.772.752-.912.75-1.252 2.503h-4.06q.215-1.556.626-2.468.411-.93 1.27-1.717 2.253-2.038 6.456-2.038 3.649 0 5.688 1.716 2.038 1.717 2.038 4.794v10.48h2.343v3.112zm14.344-19.673v3.112q.536-.716.93-1.163.41-.447 1.144-1.073.751-.644 1.7-.966.947-.34 2.038-.34 1.789 0 2.88.895 1.108.876 1.734 2.843.43-.608.68-.947.268-.34.858-.948.609-.608 1.163-.948.554-.34 1.395-.608.858-.286 1.806-.286 2.147 0 3.506 1.502 1.377 1.484 1.377 3.952v11.536h2.307v3.112h-6.17v-13.986q0-3.005-2.218-3.005-.948 0-1.824.573-.877.554-1.449 1.359-.554.787-.894 1.592-.34.805-.34 1.341v9.014h2.272v3.112h-6.117V150.18q0-2.97-2.271-2.97-1.252 0-2.361 1.038-1.091 1.037-1.646 2.379-.536 1.341-.465 2.432v8.066h2.415v3.112h-8.674v-3.112h2.414v-13.45h-2.414v-3.111zm40.061 12.752h4.042q-.59 2.647-1.949 4.328-2.468 3.04-6.635 3.04-4.114 0-6.725-2.95-2.611-2.952-2.611-7.566 0-4.364 2.575-7.19 2.594-2.843 6.582-2.843 1.556 0 2.772.59 1.216.572 2.468 2.003v-2.164h2.969v7.028h-3.148q-.518-2.11-1.77-3.183-1.163-1.055-3.076-1.055-2.415 0-3.846 1.896-1.43 1.877-1.43 5.061 0 3.183 1.412 5.133 1.413 1.931 3.756 1.931 1.288 0 2.307-.608 1.038-.608 1.646-1.734.375-.734.661-1.717z" aria-label="amc" transform="translate(-178.847 -516.309) scale(3.58213)"/><path d="M65.298 172.437v-.664l-.433.063q-.678.104-1.017.222-.334.112-.52.298-.211.212-.211.47 0 .347.252.596.253.248.606.248.506 0 .912-.38.411-.383.411-.853zm.01 1.852v-.664q-.218.194-.349.298-.126.1-.343.23-.212.131-.452.19-.239.059-.524.059-.7 0-1.156-.42-.452-.425-.452-1.07 0-.565.37-.963.285-.293.773-.447.488-.154 1.477-.267l.646-.072v-.316q0-.43-.27-.655-.267-.23-.778-.23-.465 0-.7.19-.23.189-.316.632h-1.025q.054-.393.158-.624.104-.235.32-.433.57-.515 1.631-.515.922 0 1.436.433.515.434.515 1.211v2.647h.592v.786zm1.964-4.183v-.786h1.536v3.379q0 .434.221.682.226.244.62.244.32 0 .618-.212.303-.213.479-.524.18-.312.18-.606v-2.177h-.573v-.786h1.545v4.183h.573v.786h-1.544v-.777q-.253.298-.448.452-.19.149-.429.262-.375.176-.759.176-.655 0-1.057-.416-.397-.42-.397-1.102v-2.778zm5.94 2.498h.768q.14.348.285.502.474.528 1.147.528.38 0 .65-.226.276-.23.276-.542 0-.24-.122-.375-.117-.135-.43-.226-.31-.095-.939-.176-.8-.104-1.224-.479-.42-.38-.42-.975 0-.62.447-1.021.448-.402 1.134-.402.447 0 .759.153.312.15.705.556v-.6h.759v1.508h-.76q-.067-.19-.117-.285-.05-.095-.135-.185-.393-.456-1.026-.456-.388 0-.655.199-.262.194-.262.478 0 .272.235.402.235.131.858.217.272.032.457.068.19.032.46.109.271.076.484.216.217.136.357.33.28.38.28.913 0 .686-.457 1.129-.456.438-1.165.438-.696 0-1.192-.42-.181-.167-.398-.47v.777h-.759zm5.195-3.284v-1.45h.962v1.45h1.111v.786h-1.11v2.86q0 .334.167.474.172.135.583.135.158 0 .361-.018v.75q-.045 0-.348.023-.302.022-.429.022-.682 0-.989-.248-.307-.249-.307-.804v-3.194h-.718v-.786zm4.097 0v1.111l.14-.298q.059-.113.153-.275.1-.163.2-.262.103-.1.243-.194.14-.1.316-.145.176-.045.389-.045.19 0 .474.063v.935q-.339-.077-.483-.077-.316 0-.574.122-.257.118-.411.294-.154.171-.262.384-.104.208-.145.38-.04.17-.04.302v1.888h.564v.786H80.96v-.786h.574v-3.397h-.556v-.786zm2.95-.759v-1.043h1.043v1.043zm-.511 1.536v-.777h1.554v4.183h.556v.786h-2.119v-.786h.592v-3.406zm6.057 2.34v-.664l-.433.063q-.678.104-1.017.222-.334.112-.519.298-.212.212-.212.47 0 .347.253.596.253.248.605.248.506 0 .912-.38.411-.383.411-.853zm.01 1.852v-.664q-.217.194-.348.298-.127.1-.344.23-.212.131-.451.19-.24.059-.524.059-.7 0-1.157-.42-.451-.425-.451-1.07 0-.565.37-.963.285-.293.772-.447.488-.154 1.477-.267l.646-.072v-.316q0-.43-.27-.655-.267-.23-.778-.23-.465 0-.7.19-.23.189-.316.632h-1.025q.054-.393.158-.624.104-.235.32-.433.57-.515 1.631-.515.922 0 1.437.433.515.434.515 1.211v2.647h.591v.786zm3.631-4.969v.786q.393-.474.813-.7.393-.194.813-.194.646 0 1.057.402.416.402.416 1.03v2.859h.583v.786h-1.554v-3.365q0-.416-.222-.669-.22-.257-.573-.257-.484 0-.913.438-.429.438-.429 1.003v2.064h.592v.786h-2.155v-.786h.592v-3.397h-.592v-.786zm8.343 0v.786q.136-.18.235-.293.104-.113.29-.271.189-.163.428-.244.24-.086.515-.086.452 0 .728.226.28.221.438.718.108-.154.171-.24.068-.085.217-.239.154-.153.294-.24.14-.085.352-.153.217-.072.456-.072.542 0 .886.38.348.374.348.998v2.913h.582v.786h-1.558v-3.532q0-.76-.56-.76-.24 0-.461.145-.221.14-.366.344-.14.198-.226.402-.086.203-.086.338v2.277h.574v.786h-1.545v-3.55q0-.75-.573-.75-.317 0-.597.262-.275.262-.415.6-.136.34-.118.615v2.037h.61v.786h-2.19v-.786h.61v-3.397h-.61v-.786zm7.612 1.992h2.443q-.036-.619-.32-.944-.285-.325-.8-.325-.289 0-.528.122-.24.117-.384.284-.14.168-.24.357-.1.19-.135.321-.036.131-.036.185zm2.39 1.45h1.06q-.636 1.64-2.136 1.64-1.052 0-1.707-.732-.65-.736-.65-1.915 0-1.102.672-1.82.678-.723 1.712-.723.221 0 .443.05.221.045.479.153.262.108.478.32.222.209.402.502.186.294.29.75.103.456.103 1.016h-3.573q.019.402.145.714.126.312.325.492.203.177.438.267.24.09.497.09.389 0 .633-.194.248-.194.388-.61zm4.132.822q.583 0 .94-.478.361-.484.361-1.279 0-.975-.433-1.432-.168-.167-.398-.266-.23-.104-.452-.104-.569 0-.894.47-.32.47-.32 1.296 0 .845.315 1.319.317.474.881.474zm.728-5.402v-.786h1.535v6.107h.565v.786h-1.536v-.723q-.194.267-.334.398-.136.126-.357.253-.339.185-.863.185-.867 0-1.418-.732-.551-.732-.551-1.87 0-1.143.55-1.865.552-.723 1.428-.723.33 0 .615.1.289.099.474.252.19.154.294.276.103.117.162.221v-1.88zm3.315.38v-1.044h1.043v1.043zm-.51 1.535v-.777h1.553v4.183h.556v.786h-2.118v-.786h.591v-3.406zm6.057 2.34v-.664l-.434.063q-.677.104-1.016.222-.334.112-.52.298-.212.212-.212.47 0 .347.253.596.253.248.606.248.505 0 .912-.38.411-.383.411-.853zm.009 1.852v-.664q-.217.194-.348.298-.126.1-.343.23-.212.131-.452.19-.24.059-.524.059-.7 0-1.156-.42-.452-.425-.452-1.07 0-.565.37-.963.285-.293.773-.447.488-.154 1.477-.267l.646-.072v-.316q0-.43-.271-.655-.267-.23-.777-.23-.465 0-.7.19-.23.189-.316.632h-1.026q.055-.393.158-.624.104-.235.321-.433.57-.515 1.63-.515.922 0 1.437.433.515.434.515 1.211v2.647h.592v.786zm8.217-1.748h1.02q-.149.668-.492 1.093-.623.768-1.676.768-1.039 0-1.698-.745-.66-.746-.66-1.911 0-1.102.65-1.816.656-.718 1.663-.718.393 0 .7.149.307.144.624.506v-.547h.75v1.775h-.796q-.13-.533-.447-.804-.293-.266-.777-.266-.61 0-.97.479-.362.474-.362 1.278t.357 1.296q.356.488.948.488.325 0 .583-.153.262-.154.415-.438.095-.186.168-.434zm4.024 1.86q-1.034 0-1.68-.73-.641-.733-.641-1.907 0-1.116.655-1.834t1.675-.718q1.053 0 1.703.709.655.71.655 1.861 0 1.165-.66 1.893-.654.727-1.707.727zm.018-.817q.606 0 .958-.474.357-.479.357-1.292 0-.854-.343-1.323-.344-.47-.972-.47-.6 0-.953.488-.352.488-.352 1.323 0 .79.352 1.27.357.478.953.478zm4.635-4.264v1.111l.14-.298q.059-.113.154-.275.099-.163.198-.262.104-.1.244-.194.14-.1.316-.145.177-.045.389-.045.19 0 .474.063v.935q-.339-.077-.483-.077-.316 0-.574.122-.257.118-.41.294-.154.171-.263.384-.104.208-.144.38-.041.17-.041.302v1.888h.565v.786h-2.11v-.786h.574v-3.397h-.556v-.786zm3.92 2.426q0 .845.344 1.341.343.497.922.497.591 0 .912-.46.32-.466.32-1.324 0-.836-.32-1.305-.316-.47-.876-.47-.574 0-.94.483-.361.479-.361 1.238zm.01-2.426v.714q.316-.416.673-.619.357-.203.89-.203.88 0 1.432.727.555.727.555 1.888 0 1.12-.564 1.848-.565.727-1.432.727-.253 0-.48-.059-.225-.058-.37-.126-.144-.073-.298-.204-.153-.135-.226-.212-.067-.081-.18-.226v1.518h.592v.786h-2.155v-.786h.592v-4.987h-.592v-.786zm4.142.786v-.786h1.536v3.379q0 .434.221.682.226.244.619.244.32 0 .619-.212.302-.213.479-.524.18-.312.18-.606v-2.177h-.573v-.786h1.544v4.183h.574v.786h-1.545v-.777q-.253.298-.447.452-.19.149-.429.262-.375.176-.759.176-.655 0-1.057-.416-.397-.42-.397-1.102v-2.778zm5.94 2.498h.768q.14.348.284.502.475.528 1.148.528.38 0 .65-.226.276-.23.276-.542 0-.24-.122-.375-.118-.135-.43-.226-.311-.095-.939-.176-.8-.104-1.224-.479-.42-.38-.42-.975 0-.62.447-1.021.447-.402 1.134-.402.447 0 .759.153.311.15.704.556v-.6h.76v1.508h-.76q-.067-.19-.117-.285-.05-.095-.136-.185-.393-.456-1.025-.456-.388 0-.655.199-.262.194-.262.478 0 .272.235.402.235.131.858.217.271.032.456.068.19.032.461.109.271.076.484.216.216.136.356.33.28.38.28.913 0 .686-.456 1.129-.456.438-1.165.438-.696 0-1.193-.42-.18-.167-.397-.47v.777h-.759z" aria-label="austrian media corpus" transform="translate(-178.847 -516.309) scale(3.58213)"/></g></svg>
