<?xml version="1.0" standalone="no"?>
<!DOCTYPE svg PUBLIC "-//W3C//DTD SVG 20010904//EN"
 "http://www.w3.org/TR/2001/REC-SVG-20010904/DTD/svg10.dtd">
<svg version="1.0" xmlns="http://www.w3.org/2000/svg"
 width="800.000000pt" height="227.000000pt" viewBox="0 0 800.000000 227.000000"
 preserveAspectRatio="xMidYMid meet">
<metadata>
Created by potrace 1.16, written by Peter Selinger 2001-2019
</metadata>
<g transform="translate(0.000000,227.000000) scale(0.100000,-0.100000)"
fill="#c00000" stroke="none">
<path d="M557 2259 c-159 -13 -276 -60 -370 -148 -72 -67 -101 -124 -131 -264
l-7 -28 147 3 147 3 15 53 c20 70 77 135 139 156 59 20 203 21 269 1 27 -8 66
-29 88 -47 56 -46 76 -96 76 -195 l0 -82 -32 -5 c-18 -3 -109 -15 -203 -27
-410 -50 -566 -119 -651 -288 -86 -174 -32 -400 123 -511 98 -70 149 -84 298
-84 112 0 138 3 190 24 74 29 121 57 207 126 37 30 69 54 72 54 4 0 6 -40 6
-90 l0 -90 220 0 220 0 0 110 0 110 -85 0 -85 0 0 393 c0 223 -5 420 -11 456
-42 262 -281 399 -642 370z m352 -1025 c-28 -74 -115 -164 -193 -200 -137 -63
-250 -51 -335 34 -121 122 -84 288 83 366 66 31 190 61 341 84 l120 18 3 -122
c2 -105 0 -130 -19 -180z"/>
<path d="M2330 2258 c-118 -15 -187 -55 -293 -167 l-67 -71 0 105 0 105 -225
0 -225 0 0 -110 0 -110 90 0 90 0 -2 -482 -3 -483 -87 -3 -88 -3 0 -109 0
-110 310 0 310 0 0 110 0 110 -85 0 -86 0 3 343 c3 332 4 344 27 400 13 33 42
86 65 119 127 186 346 191 385 8 7 -33 11 -230 11 -570 l0 -520 220 0 220 0 0
110 0 110 -85 0 -86 0 3 353 3 352 35 69 c41 82 117 169 173 198 22 11 66 23
97 25 75 7 123 -15 153 -71 22 -41 22 -46 25 -593 l3 -553 219 0 220 0 0 110
0 110 -80 0 -80 0 0 413 c0 226 -5 445 -10 486 -29 225 -186 347 -410 318
-119 -15 -217 -79 -321 -209 l-37 -47 -35 72 c-19 40 -50 87 -68 106 -67 67
-170 95 -289 79z"/>
<path d="M4440 2259 c-150 -15 -282 -81 -392 -198 -78 -83 -136 -192 -165
-306 -26 -107 -24 -344 5 -450 37 -136 95 -238 187 -330 127 -127 272 -185
459 -185 208 0 374 82 492 242 44 60 98 178 109 241 l7 37 -141 0 c-126 0
-142 -2 -148 -17 -38 -115 -112 -207 -196 -244 -73 -32 -191 -32 -264 0 -155
69 -253 281 -239 521 10 177 54 288 148 375 69 64 133 88 233 89 160 0 273
-85 331 -251 l19 -53 112 0 113 0 0 250 0 250 -105 0 -105 0 0 -76 0 -77 -49
46 c-125 117 -233 153 -411 136z"/>
<path d="M4880 575 c0 -18 5 -25 20 -25 18 0 20 -7 20 -65 l0 -64 -36 24 c-48
32 -110 34 -149 3 -86 -67 -85 -249 1 -317 39 -31 122 -26 159 9 l25 23 0 -27
c0 -26 1 -27 53 -24 46 3 52 6 55 26 3 17 -2 25 -17 29 -20 5 -21 11 -21 219
l0 214 -55 0 c-52 0 -55 -1 -55 -25z m0 -182 c60 -54 47 -184 -21 -222 -61
-34 -119 23 -119 117 0 115 71 167 140 105z"/>
<path d="M2570 555 c0 -33 2 -35 35 -35 33 0 35 2 35 35 0 33 -2 35 -35 35
-33 0 -35 -2 -35 -35z"/>
<path d="M5120 555 c0 -33 2 -35 35 -35 33 0 35 2 35 35 0 33 -2 35 -35 35
-33 0 -35 -2 -35 -35z"/>
<path d="M2060 520 c0 -47 -2 -50 -25 -50 -21 0 -25 -5 -25 -30 0 -25 4 -30
25 -30 l25 0 0 -125 c0 -120 1 -127 25 -150 19 -20 34 -25 75 -25 47 0 50 2
50 25 0 19 -5 25 -21 25 -11 0 -29 5 -40 10 -17 10 -19 22 -19 125 l0 115 41
0 c38 0 40 1 37 28 -3 23 -8 27 -40 30 l-38 3 0 50 0 49 -35 0 -35 0 0 -50z"/>
<path d="M963 450 c-33 -20 -53 -48 -53 -74 0 -12 10 -16 35 -16 23 0 35 5 35
13 0 24 35 47 71 47 43 0 66 -16 75 -52 7 -32 9 -31 -94 -48 -98 -16 -132 -44
-132 -107 0 -36 6 -50 29 -74 40 -39 109 -41 164 -4 l37 26 0 -26 c0 -25 2
-26 53 -23 48 3 52 5 55 31 3 23 0 27 -22 27 l-26 0 0 110 c0 60 -5 120 -11
134 -25 54 -151 76 -216 36z m164 -202 c-7 -52 -44 -88 -89 -88 -58 0 -90 58
-50 93 20 18 74 35 116 36 28 1 29 0 23 -41z"/>
<path d="M1270 440 c0 -23 4 -30 20 -30 19 0 20 -7 20 -121 l0 -121 30 -30
c28 -28 35 -30 81 -26 32 3 58 13 72 27 30 27 37 27 37 -5 0 -24 2 -25 53 -22
48 3 52 5 55 31 3 22 -1 27 -17 27 -20 0 -21 7 -23 148 l-3 147 -52 3 -53 3 0
-30 c0 -24 4 -31 20 -31 19 0 20 -7 20 -91 0 -90 0 -91 -34 -125 -33 -33 -67
-42 -94 -26 -22 14 -32 74 -32 189 l0 113 -50 0 c-49 0 -50 -1 -50 -30z"/>
<path d="M1739 455 c-55 -30 -62 -116 -13 -154 14 -11 44 -22 67 -26 101 -16
136 -40 115 -80 -16 -28 -28 -35 -67 -35 -25 0 -42 9 -68 35 -21 21 -45 35
-59 35 -23 0 -24 -3 -24 -60 0 -57 1 -60 25 -60 20 0 25 5 25 25 0 14 5 25 10
25 6 0 10 -4 10 -8 0 -17 61 -42 103 -42 63 0 97 30 104 91 3 27 0 55 -7 68
-14 27 -77 56 -142 65 -73 11 -92 57 -35 84 37 18 73 8 108 -29 15 -16 36 -29
48 -29 19 0 21 6 21 55 0 52 -1 55 -25 55 -18 0 -25 -5 -25 -20 0 -11 -3 -20
-6 -20 -3 0 -17 9 -31 20 -30 24 -95 26 -134 5z"/>
<path d="M2250 440 c0 -23 4 -30 20 -30 19 0 20 -7 20 -119 0 -116 -1 -120
-22 -123 -17 -2 -23 -10 -23 -28 0 -24 3 -25 73 -28 l72 -3 0 31 c0 23 -4 30
-20 30 -18 0 -20 7 -20 70 0 113 36 170 107 170 30 0 33 3 33 30 0 27 -3 30
-31 30 -41 0 -66 -15 -89 -53 l-20 -32 0 43 0 42 -50 0 c-49 0 -50 -1 -50 -30z"/>
<path d="M2530 441 c0 -24 4 -31 20 -31 19 0 20 -7 20 -120 0 -113 -1 -120
-20 -120 -16 0 -20 -7 -20 -30 l0 -31 73 3 c70 3 72 4 75 31 3 22 -1 27 -17
27 -20 0 -21 7 -23 148 l-3 147 -52 3 -53 3 0 -30z"/>
<path d="M2803 454 c-30 -15 -67 -70 -57 -86 3 -4 18 -8 34 -8 20 0 33 7 41
23 16 30 28 37 70 37 42 0 69 -24 69 -62 0 -24 -4 -26 -61 -32 -84 -10 -137
-32 -154 -67 -55 -106 73 -196 178 -125 l36 25 3 -22 c3 -19 10 -22 56 -25
l52 -3 0 30 c0 24 -4 31 -20 31 -19 0 -20 7 -20 104 0 122 -8 149 -52 176 -41
25 -129 27 -175 4z m157 -203 c0 -50 -38 -91 -84 -91 -54 0 -78 30 -63 76 9
27 63 50 125 53 19 1 22 -4 22 -38z"/>
<path d="M3110 440 c0 -23 4 -30 20 -30 19 0 20 -7 20 -120 0 -113 -1 -120
-20 -120 -16 0 -20 -7 -20 -30 l0 -30 75 0 75 0 0 30 c0 23 -4 30 -20 30 -19
0 -20 7 -20 91 0 90 0 91 34 125 38 38 74 44 99 16 13 -14 17 -45 19 -152 l3
-135 53 -3 52 -3 0 30 c0 24 -4 31 -20 31 -19 0 -20 7 -20 121 0 120 0 121
-29 150 -42 42 -106 41 -156 -2 l-35 -31 0 31 c0 31 0 31 -55 31 -54 0 -55 0
-55 -30z"/>
<path d="M3710 440 c0 -23 4 -30 20 -30 19 0 20 -7 20 -120 0 -113 -1 -120
-20 -120 -16 0 -20 -7 -20 -30 l0 -30 75 0 75 0 0 30 c0 23 -4 30 -20 30 -19
0 -20 7 -20 94 0 87 2 97 26 125 30 36 68 41 84 12 5 -11 10 -81 10 -156 l0
-136 53 3 c48 3 52 5 55 31 3 22 -1 27 -17 27 -20 0 -21 6 -21 96 0 92 1 97
29 125 31 31 59 37 79 17 8 -8 12 -57 12 -155 l0 -143 55 0 c54 0 55 0 55 30
0 23 -5 30 -19 30 -18 0 -20 10 -23 124 -3 116 -5 126 -27 150 -35 37 -90 36
-133 -3 l-32 -28 -24 28 c-32 38 -87 40 -130 4 -17 -14 -33 -25 -36 -25 -3 0
-6 11 -6 25 0 23 -3 25 -50 25 -49 0 -50 -1 -50 -30z"/>
<path d="M4370 448 c-62 -42 -75 -71 -75 -158 0 -64 4 -84 21 -107 71 -96 204
-100 265 -7 25 39 24 44 -12 44 -22 0 -40 -9 -59 -30 -15 -16 -38 -30 -50 -30
-51 0 -100 49 -100 100 0 19 8 20 126 20 l127 0 -7 43 c-15 96 -69 147 -157
147 -31 0 -57 -7 -79 -22z m143 -60 c9 -11 17 -31 17 -44 0 -23 -2 -24 -85
-24 -94 0 -101 6 -64 54 39 50 96 56 132 14z"/>
<path d="M5080 441 c0 -24 4 -31 20 -31 19 0 20 -7 20 -120 0 -113 -1 -120
-20 -120 -16 0 -20 -7 -20 -30 l0 -31 73 3 c67 3 72 5 75 26 3 17 -2 25 -17
29 -19 5 -21 14 -23 152 l-3 146 -52 3 -53 3 0 -30z"/>
<path d="M5351 453 c-20 -10 -39 -30 -47 -50 -19 -44 -19 -43 21 -43 19 0 35
5 35 10 0 22 41 50 73 50 45 0 77 -25 77 -59 0 -27 -2 -29 -62 -35 -77 -9
-142 -36 -158 -67 -19 -34 -6 -100 25 -126 37 -33 110 -32 159 2 l36 24 0 -24
c0 -24 3 -25 55 -25 54 0 55 0 55 30 0 23 -4 30 -20 30 -19 0 -20 7 -20 100 0
117 -14 161 -59 184 -39 21 -127 20 -170 -1z m159 -197 c0 -23 -9 -45 -26 -66
-23 -27 -32 -31 -68 -28 -33 2 -43 8 -54 30 -21 45 6 74 83 91 56 13 65 9 65
-27z"/>
<path d="M5930 448 c-55 -38 -74 -71 -78 -141 -6 -115 60 -197 160 -197 60 0
103 21 128 63 29 47 26 67 -10 67 -23 0 -33 -6 -39 -23 -12 -30 -31 -46 -68
-53 -25 -5 -37 0 -64 24 -33 29 -34 33 -34 102 0 68 2 73 33 101 18 16 43 29
56 29 28 0 86 -45 86 -66 0 -9 11 -14 30 -14 l31 0 -3 63 c-3 56 -5 62 -25 65
-18 3 -23 -2 -23 -17 l0 -21 -32 20 c-45 27 -106 26 -148 -2z"/>
<path d="M6299 447 c-44 -29 -79 -98 -79 -157 0 -59 35 -128 79 -157 47 -32
125 -32 172 0 86 57 105 208 35 285 -51 57 -146 70 -207 29z m125 -38 c38 -18
59 -71 54 -137 -4 -47 -10 -60 -37 -84 -17 -15 -43 -28 -57 -28 -35 0 -81 48
-89 93 -10 54 3 106 35 139 31 30 55 35 94 17z"/>
<path d="M6610 440 c0 -23 4 -30 20 -30 19 0 20 -7 20 -120 0 -113 -1 -120
-20 -120 -16 0 -20 -7 -20 -30 l0 -30 70 0 70 0 0 30 c0 24 -4 30 -21 30 -21
0 -21 4 -17 83 6 111 39 157 113 157 21 0 25 5 25 30 0 28 -3 30 -35 30 -35 0
-85 -35 -85 -60 0 -5 -4 -10 -10 -10 -5 0 -10 16 -10 35 l0 35 -50 0 c-49 0
-50 -1 -50 -30z"/>
<path d="M6890 441 c0 -24 4 -31 20 -31 19 0 20 -7 20 -180 0 -173 -1 -180
-20 -180 -15 0 -20 -7 -20 -25 0 -24 2 -25 75 -25 73 0 75 1 75 25 0 18 -5 25
-20 25 -18 0 -20 7 -20 58 0 31 4 52 8 46 17 -25 59 -44 97 -44 87 0 139 67
139 180 0 114 -52 180 -141 180 -30 0 -50 -7 -72 -25 l-30 -26 -3 23 c-3 20
-10 23 -55 26 l-53 3 0 -30z m245 -43 c15 -14 30 -41 36 -65 24 -108 -47 -203
-122 -163 -67 36 -68 198 0 235 37 20 56 18 86 -7z"/>
<path d="M7297 463 c-14 -14 -6 -45 13 -50 18 -5 20 -14 20 -92 0 -115 8 -156
36 -186 32 -35 97 -35 148 0 45 31 46 31 46 0 0 -23 3 -25 50 -25 49 0 50 1
50 30 0 23 -4 30 -20 30 -19 0 -20 7 -20 151 l0 150 -52 -3 c-49 -3 -53 -5
-56 -30 -3 -24 0 -28 22 -28 25 0 26 -2 26 -67 0 -121 -34 -183 -101 -183 -50
0 -59 28 -59 177 l0 133 -48 0 c-27 0 -52 -3 -55 -7z"/>
<path d="M7749 441 c-59 -60 -22 -151 67 -166 89 -15 119 -29 122 -57 4 -30
-28 -58 -66 -58 -31 0 -79 26 -92 50 -6 12 -21 20 -35 20 -24 0 -25 -3 -25
-60 0 -57 1 -60 25 -60 20 0 25 5 25 25 l0 24 36 -24 c53 -36 113 -34 156 4
28 25 33 36 33 76 0 40 -5 51 -31 75 -20 17 -49 31 -75 35 -82 12 -109 25
-109 50 0 25 13 39 47 49 29 9 90 -19 98 -45 4 -13 16 -19 36 -19 30 0 30 0
27 53 -3 45 -6 52 -25 55 -18 3 -23 -2 -23 -17 0 -26 -2 -26 -42 -1 -51 31
-113 27 -149 -9z"/>
</g>
</svg>
